<?xml version="1.0" encoding="UTF-8" standalone="no"?>
<!-- Created with Inkscape (http://www.inkscape.org/) -->

<svg
   xmlns:dc="http://purl.org/dc/elements/1.1/"
   xmlns:cc="http://creativecommons.org/ns#"
   xmlns:rdf="http://www.w3.org/1999/02/22-rdf-syntax-ns#"
   xmlns:svg="http://www.w3.org/2000/svg"
   xmlns="http://www.w3.org/2000/svg"
   xmlns:sodipodi="http://sodipodi.sourceforge.net/DTD/sodipodi-0.dtd"
   xmlns:inkscape="http://www.inkscape.org/namespaces/inkscape"
   sodipodi:docname="Box1.svg"
   height="475.11255"
   width="899.97839"
   inkscape:version="0.48.4 r9939"
   version="1.1"
   id="svg3050">
  <metadata
     id="metadata3056">
    <rdf:RDF>
      <cc:Work
         rdf:about="">
        <dc:format>image/svg+xml</dc:format>
        <dc:type
           rdf:resource="http://purl.org/dc/dcmitype/StillImage" />
        <dc:title />
      </cc:Work>
    </rdf:RDF>
  </metadata>
  <defs
     id="defs3054" />
  <sodipodi:namedview
     pagecolor="#ffffff"
     bordercolor="#666666"
     borderopacity="1"
     objecttolerance="10"
     gridtolerance="10"
     guidetolerance="10"
     inkscape:pageopacity="0"
     inkscape:pageshadow="2"
     inkscape:window-width="1855"
     inkscape:window-height="1056"
     id="namedview3052"
     showgrid="true"
     inkscape:zoom="0.25"
     inkscape:cx="891.11836"
     inkscape:cy="-800.6611"
     inkscape:window-x="65"
     inkscape:window-y="24"
     inkscape:window-maximized="1"
     inkscape:current-layer="layer1"
     fit-margin-top="0"
     fit-margin-left="0"
     fit-margin-right="0"
     fit-margin-bottom="0" />
  <g
     inkscape:groupmode="layer"
     id="layer1"
     inkscape:label="Layer"
     transform="translate(-0.02679847,288.09089)">
    <g
       id="g5293"
       transform="matrix(2.6399586,0,0,2.6399706,-315.44824,-359.36993)">
      <path
         sodipodi:nodetypes="ccccscccczccccscccczc"
         inkscape:connector-curvature="0"
         d="m 226.5,195 -20.44779,0.0243 C 187.5,201 170.5,206.5 141.54478,206.44747 l 1e-5,-40.83099 C 134.51315,157.06218 120,145 119.98985,117.01269 c -0.0102,-27.987298 14.503,-40.049475 21.53464,-48.603775 l -10e-6,-40.83099 c 28.95522,-0.05253 45.95522,5.44747 64.50743,11.42319 l 20.44779,0.02428 c 19.70495,-6.98364 43.5,-11.5 63.46736,-11.51968 19.96736,-0.01968 43.76241,4.496681 63.46736,11.480321 l 20.44779,-0.02428 c 18.55221,-5.97572 35.55221,-11.47572 64.50743,-11.42319 l -1e-5,40.83099 c 7.03164,8.5543 21.54484,20.616477 21.53464,48.603784 -0.0102,27.9873 -14.5233,40.04948 -21.55494,48.60378 l 10e-6,40.83099 c -28.95522,0.0525 -45.95522,-5.44747 -64.50743,-11.42317 l -20.44779,-0.0243 c -19.70495,6.98364 -43.5,11.5 -63.44706,11.51968 C 270,206.5 246.20495,201.98364 226.5,195 z"
         style="fill:none;stroke:#ff0000;stroke-width:1;stroke-linecap:butt;stroke-linejoin:miter;stroke-miterlimit:4;stroke-opacity:1;stroke-dasharray:none"
         id="path3062-4-2" />
      <path
         inkscape:connector-curvature="0"
         id="path5141"
         d="m 141.49825,165.53174 c 28.95522,-0.0525 45.95522,5.44747 64.50743,11.42319 l 20.44779,0.0243 c 19.70495,-6.98364 43.5,-11.5 63.46736,-11.51968 19.96736,-0.0197 43.76241,4.49668 63.46736,11.48032 l 20.44779,-0.0243 c 18.55221,-5.97572 35.55221,-11.47572 64.50743,-11.42319"
         style="fill:none;stroke:#00ffff;stroke-width:1;stroke-linecap:butt;stroke-linejoin:miter;stroke-miterlimit:4;stroke-opacity:1;stroke-dasharray:none" />
      <path
         inkscape:connector-curvature="0"
         id="path3062-4-2-0"
         d="m 438.3231,68.196216 c -28.95522,0.0525 -45.95522,-5.44747 -64.50743,-11.42317 l -20.44779,-0.0243 c -19.70495,6.98364 -43.5,11.5 -63.44706,11.51968 -19.94706,0.0197 -43.74211,-4.49668 -63.44706,-11.48032 l -20.44779,0.0243 c -18.55221,5.9757 -35.55221,11.4757 -64.50743,11.42317"
         style="fill:none;stroke:#00ffff;stroke-width:1;stroke-linecap:butt;stroke-linejoin:miter;stroke-miterlimit:4;stroke-opacity:1;stroke-dasharray:none" />
      <path
         id="path5237"
         d="m 206,39 0,18"
         style="fill:none;stroke:#ff0000;stroke-width:1;stroke-linecap:butt;stroke-linejoin:miter;stroke-miterlimit:4;stroke-opacity:1;stroke-dasharray:none"
         inkscape:connector-curvature="0" />
      <path
         id="path5247"
         d="m 206,57 0,120"
         style="fill:none;stroke:#00ffff;stroke-width:1;stroke-linecap:butt;stroke-linejoin:miter;stroke-miterlimit:4;stroke-opacity:1;stroke-dasharray:none"
         inkscape:connector-curvature="0" />
      <path
         id="path5143"
         d="m 206,177 0,18"
         style="fill:none;stroke:#ff0000;stroke-width:1;stroke-linecap:butt;stroke-linejoin:miter;stroke-miterlimit:4;stroke-opacity:1;stroke-dasharray:none"
         inkscape:connector-curvature="0" />
      <path
         id="path5267"
         d="m 226.85035,39.123664 0,18"
         style="fill:none;stroke:#ff0000;stroke-width:1;stroke-linecap:butt;stroke-linejoin:miter;stroke-miterlimit:4;stroke-opacity:1;stroke-dasharray:none"
         inkscape:connector-curvature="0" />
      <path
         id="path5255"
         d="m 226.85035,57.123664 0,119.999996"
         style="fill:none;stroke:#00ffff;stroke-width:1;stroke-linecap:butt;stroke-linejoin:miter;stroke-miterlimit:4;stroke-opacity:1;stroke-dasharray:none"
         inkscape:connector-curvature="0" />
      <path
         id="path5143-6"
         d="m 226.85035,177.12366 0,18"
         style="fill:none;stroke:#ff0000;stroke-width:1;stroke-linecap:butt;stroke-linejoin:miter;stroke-miterlimit:4;stroke-opacity:1;stroke-dasharray:none"
         inkscape:connector-curvature="0" />
      <path
         id="path5227"
         d="m 353.56264,39.026834 0,18.000004"
         style="fill:none;stroke:#ff0000;stroke-width:1;stroke-linecap:butt;stroke-linejoin:miter;stroke-miterlimit:4;stroke-opacity:1;stroke-dasharray:none"
         inkscape:connector-curvature="0" />
      <path
         id="path5219"
         d="m 353.56264,57.026838 0,120.000002"
         style="fill:none;stroke:#00ffff;stroke-width:1;stroke-linecap:butt;stroke-linejoin:miter;stroke-miterlimit:4;stroke-opacity:1;stroke-dasharray:none"
         inkscape:connector-curvature="0" />
      <path
         id="path5143-6-6"
         d="m 353.56264,177.02684 0,18"
         style="fill:none;stroke:#ff0000;stroke-width:1;stroke-linecap:butt;stroke-linejoin:miter;stroke-miterlimit:4;stroke-opacity:1;stroke-dasharray:none"
         inkscape:connector-curvature="0" />
      <path
         id="path5201"
         d="m 374.04011,39.016205 0,18.000001"
         style="fill:none;stroke:#ff0000;stroke-width:1;stroke-linecap:butt;stroke-linejoin:miter;stroke-miterlimit:4;stroke-opacity:1;stroke-dasharray:none"
         inkscape:connector-curvature="0" />
      <path
         id="path5209"
         d="m 374.04011,57.016206 0,120.000004"
         style="fill:none;stroke:#00ffff;stroke-width:1;stroke-linecap:butt;stroke-linejoin:miter;stroke-miterlimit:4;stroke-opacity:1;stroke-dasharray:none"
         inkscape:connector-curvature="0" />
      <path
         id="path5143-6-6-5"
         d="m 374.04011,177.01621 0,18"
         style="fill:none;stroke:#ff0000;stroke-width:1;stroke-linecap:butt;stroke-linejoin:miter;stroke-miterlimit:4;stroke-opacity:1;stroke-dasharray:none"
         inkscape:connector-curvature="0" />
      <path
         inkscape:connector-curvature="0"
         id="path5273"
         d="m 120.5,109 21,-6 0,13.5"
         style="fill:none;stroke:#ff0000;stroke-width:1px;stroke-linecap:butt;stroke-linejoin:miter;stroke-opacity:1" />
      <path
         inkscape:connector-curvature="0"
         id="path5273-2"
         d="m 459.34928,124.90645 -21,6 0,-13.5"
         style="fill:none;stroke:#ff0000;stroke-width:1px;stroke-linecap:butt;stroke-linejoin:miter;stroke-opacity:1" />
    </g>
  </g>
</svg>
